<svg xmlns="http://www.w3.org/2000/svg" width="12.02" height="9.98" viewBox="0 0 12.02 9.98">
  <g id="Vector_Smart_Object" data-name="Vector Smart Object" transform="translate(0.355 0.355)">
    <g id="Vector_Smart_Object-2" data-name="Vector Smart Object" transform="translate(0 0)">
      <path id="Контур_1" data-name="Контур 1" d="M22.07,129.718l4.26-4.507a.124.124,0,0,0,0-.176l-4.26-4.508a.109.109,0,0,0-.167,0l-.548.58,3.359,3.554H15.528a.494.494,0,0,0-.47.508h0a.491.491,0,0,0,.47.5h9.108l-3.281,3.472.548.58a.109.109,0,0,0,.167,0Z" transform="translate(-15.058 -120.488)" stroke="#231f20" stroke-miterlimit="10" stroke-width="0.711" fill-rule="evenodd"/>
    </g>
    <path id="Color_Overlay" data-name="Color Overlay" d="M6.845,9.23,6.3,8.65,9.579,5.179H.471a.5.5,0,0,1,0-1.005H9.657L6.3.62,6.845.039a.108.108,0,0,1,.167,0l4.261,4.508a.124.124,0,0,1,0,.175L7.012,9.23a.113.113,0,0,1-.083.039A.115.115,0,0,1,6.845,9.23Z" fill="#280f00"/>
  </g>
</svg>
